<svg id="SvgjsSvg1027" width="288" height="288" xmlns="http://www.w3.org/2000/svg" version="1.1" xmlns:xlink="http://www.w3.org/1999/xlink" xmlns:svgjs="http://svgjs.com/svgjs"><defs id="SvgjsDefs1028"></defs><g id="SvgjsG1029" transform="matrix(1,0,0,1,0,0)"><svg xmlns="http://www.w3.org/2000/svg" viewBox="0 0 64 64" width="288" height="288"><path d="M61,32a8.14,8.14,0,0,0-7.47-7.89,7.2,7.2,0,0,0,.71-.64,8,8,0,0,0,2.31-5.76,8.15,8.15,0,0,0-8.14-7.92H5.7a1.87,1.87,0,0,0-1.87,1.87v1a2.27,2.27,0,0,0,1.6,2.17V21a2.28,2.28,0,0,0-1.6,2.18v1A1.87,1.87,0,0,0,5.7,26.07H8.28V27a2.28,2.28,0,0,0,1.6,2.17V35.3a2.3,2.3,0,0,0-1.6,2.18v1a2.33,2.33,0,0,0,0,.38A8.13,8.13,0,0,0,3,46.29,7.92,7.92,0,0,0,5.3,52a8.65,8.65,0,0,0,6.15,2.61h42.4a1.88,1.88,0,0,0,1.87-1.88v-1a2.28,2.28,0,0,0-1.6-2.17V43.43a2.3,2.3,0,0,0,1.6-2.18v-1a1.84,1.84,0,0,0-.07-.47,8.78,8.78,0,0,0,3.05-2A8,8,0,0,0,61,32ZM8,15H48.27a3,3,0,1,1,0,5.95H7.43V15ZM5.83,23.19a.28.28,0,0,1,.28-.28H48.27a5,5,0,1,0,0-9.95H6.11a.29.29,0,0,1-.28-.28v-.89H48.41a6.06,6.06,0,0,1,4.34,1.8,6.15,6.15,0,0,1,1.8,4.18,5.93,5.93,0,0,1-1.74,4.3,6.64,6.64,0,0,1-4.71,2H5.83Zm6.67,6.06H52.72a3,3,0,1,1,0,5.94H11.88V29.25ZM51.84,49.48H11.28a3,3,0,1,1,0-5.95H52.12v5.95Zm1.88-9.12v.89a.28.28,0,0,1-.28.28H11.28a5,5,0,1,0,0,9.95H53.44a.29.29,0,0,1,.28.28v.89H11.45a6.64,6.64,0,0,1-4.71-2A6,6,0,0,1,5,46.34a6.15,6.15,0,0,1,6.14-6H53.72Zm-1.17-2H10.28v-.88a.29.29,0,0,1,.28-.29H52.72a5,5,0,1,0,0-9.94H10.56a.29.29,0,0,1-.28-.28v-.89H52.86a6.15,6.15,0,0,1,6.14,6,5.93,5.93,0,0,1-1.74,4.3A6.64,6.64,0,0,1,52.55,38.36Z" fill="#edeff3" class="color000 svgShape"></path></svg></g></svg>
