<svg id="SvgjsSvg1001" width="288" height="288" xmlns="http://www.w3.org/2000/svg" version="1.1" xmlns:xlink="http://www.w3.org/1999/xlink" xmlns:svgjs="http://svgjs.com/svgjs"><defs id="SvgjsDefs1002"></defs><g id="SvgjsG1008" transform="matrix(1,0,0,1,0,0)"><svg xmlns="http://www.w3.org/2000/svg" width="288" height="288" enable-background="new 0 0 512 512" viewBox="0 0 512 512"><path fill="none" stroke="#d32248" stroke-linecap="round" stroke-linejoin="round" stroke-miterlimit="2.613" stroke-width="14.403" d="
			M115.403,428.046c77.898,77.896,204.182,77.896,282.08,0c102.797-102.734,63.848-275.377-68.704-326.989 M328.617,101.057
			c132.633,51.449,171.742,224.176,68.865,326.989c-77.897,77.896-204.182,77.896-282.08,0
			C12.668,325.312,51.618,152.669,184.19,101.057" class="colorStroke000 svgStroke"></path><path d="M256.443,300.983c-3.978,0-7.202-3.224-7.202-7.201V26.47c0-3.978,3.224-7.201,7.202-7.201
				c3.977,0,7.202,3.224,7.202,7.201v267.313C263.645,297.76,260.42,300.983,256.443,300.983z" fill="#d32248" class="color000 svgShape"></path></svg></g></svg>