<svg xmlns="http://www.w3.org/2000/svg" viewBox="0 0 64 64"><path d="M10.85 24.73l-7.29 3.01-.08-.2-.14-.35c-.08-.21-.28-.34-.49-.34-.07 0-.13.02-.2.05l-1.41.58C1.1 27.53 1 27.64.94 27.77c-.05.13-.05.27 0 .4l2.32 5.62c.06.13.15.24.29.29.13.06.27.06.4 0l1.41-.58c.13-.06.23-.15.29-.29.06-.13.06-.27 0-.4l-.24-.59 7.28-3.01L10.85 24.73zM29.05 26.89c.13.29.47.42.77.3l8.11-3.34-5.4-13.09-8.11 3.35c-.15.06-.26.18-.32.32-.06.14-.06.29-.01.43L29.05 26.89zM23.78 16.89l-12.29 5.07c-.14.05-.26.17-.31.31-.06.15-.06.31-.01.46l3.17 7.69c.13.3.47.44.77.32l12.28-5.07L23.78 16.89zM61.18 14.78l-5.78-14c0-.01 0-.01 0-.01l-.03-.06C55.19.27 54.76 0 54.31 0c-.15 0-.3.02-.44.09L33.93 8.31c-.59.25-.87.92-.63 1.51l.01.03h.01l5.81 14.11c.12.29.34.5.63.62.28.12.6.12.88 0l19.94-8.22c.59-.25.87-.92.63-1.51L61.18 14.78zM62.74 9.5l-2.51-6.07c-.7-1.7-2.23-2.71-3.6-2.5l5.32 12.89C63.07 13 63.45 11.2 62.74 9.5zM40.03 42.45l-.04.05c.25-.52.4-1.09.42-1.7h1.71c.83 0 1.5-.67 1.5-1.49s-.67-1.5-1.5-1.5H30.25c-.83 0-1.49.67-1.49 1.5s.67 1.49 1.49 1.49h1.72c.02.61.17 1.19.42 1.7l-.04-.06L18.71 62.38c-.32.47-.2 1.11.27 1.43.18.12.38.19.59.19.32 0 .65-.15.84-.45l13.28-19.44-.06-.08c.46.35.99.62 1.57.76h-.04v18.18c0 .57.46 1.03 1.03 1.03.57 0 1.03-.46 1.03-1.03V44.79h-.04c.58-.14 1.11-.4 1.57-.75l-.07.08 13.28 19.43c.32.47.97.6 1.43.27.47-.32.59-.96.27-1.43L40.03 42.45zM36.18 42.15c-.77 0-1.39-.6-1.46-1.36h2.92C37.58 41.55 36.95 42.15 36.18 42.15zM38.55 37.05v-1.7c.97-.73 1.59-1.88 1.59-3.19 0-1.9-1.33-3.48-3.11-3.88l-1.13-2.45-4.4 1.81 1.18 2.58v.02c-.31.56-.49 1.22-.49 1.91 0 1.31.62 2.46 1.59 3.19v1.7H38.55zM36.16 30.87c.71 0 1.3.57 1.3 1.29 0 .71-.58 1.3-1.3 1.3-.71 0-1.29-.58-1.29-1.3C34.88 31.44 35.45 30.87 36.16 30.87z" fill="#edeff3"/></svg>
